<svg width="9" height="17" viewBox="0 0 9 17" fill="none" xmlns="http://www.w3.org/2000/svg">
<path d="M8.398 3.22734H5.746C5.25778 3.22734 4.862 3.63029 4.862 4.12734V6.82734H8.398C8.49854 6.82507 8.5939 6.87269 8.65368 6.95503C8.71345 7.03737 8.73019 7.14415 8.69856 7.24134L8.0444 9.22134C7.98412 9.40307 7.81732 9.52592 7.62892 9.52734H4.862V16.2773C4.862 16.5259 4.66411 16.7273 4.42 16.7273H2.21C1.96589 16.7273 1.768 16.5259 1.768 16.2773V9.52734H0.442C0.19789 9.52734 0 9.32587 0 9.07734V7.27734C0 7.02882 0.19789 6.82734 0.442 6.82734H1.768V4.12734C1.768 2.13912 3.35112 0.527344 5.304 0.527344H8.398C8.64211 0.527344 8.84 0.728816 8.84 0.977344V2.77734C8.84 3.02587 8.64211 3.22734 8.398 3.22734Z" fill="#7B7B7B"/>
</svg>
